<?xml version="1.0" standalone="no"?>
<!DOCTYPE svg PUBLIC "-//W3C//DTD SVG 20010904//EN"
 "http://www.w3.org/TR/2001/REC-SVG-20010904/DTD/svg10.dtd">
<svg version="1.0" xmlns="http://www.w3.org/2000/svg"
 width="872.000000pt" height="286.000000pt" viewBox="0 0 872.000000 286.000000"
 preserveAspectRatio="xMidYMid meet">

<g transform="translate(0.000000,286.000000) scale(0.100000,-0.100000)"
fill="#000000" stroke="none">
<path d="M2138 2855 c-3 -3 1 -25 9 -48 10 -29 13 -64 8 -122 -3 -44 -7 -107
-8 -140 l-2 -60 -50 -32 c-57 -36 -58 -37 -103 -88 -36 -40 -72 -114 -72 -146
0 -11 -6 -30 -14 -42 -7 -12 -16 -37 -20 -54 -5 -28 -3 -33 14 -33 10 0 22 5
25 10 3 6 13 10 21 10 19 0 10 -36 -16 -65 -10 -11 -22 -38 -26 -60 -3 -22
-10 -47 -15 -56 -5 -9 -10 -62 -13 -117 -2 -55 -7 -105 -11 -111 -3 -6 -3 -16
0 -21 18 -28 -72 -86 -148 -95 -54 -7 -57 -6 -68 19 -7 14 -16 26 -20 26 -12
0 -47 75 -55 117 -3 21 -10 43 -14 48 -8 11 -19 77 -25 151 -2 25 -9 52 -15
59 -6 8 -10 27 -8 44 2 19 -7 43 -23 69 -15 22 -32 53 -40 70 -14 32 -41 49
-96 62 -39 9 -63 -12 -89 -80 -9 -25 -23 -52 -31 -61 -7 -8 -13 -19 -13 -23 0
-26 -138 -286 -152 -286 -11 0 -48 76 -48 99 0 30 -50 131 -65 131 -7 0 -24 9
-38 20 -57 45 -122 32 -192 -39 -22 -22 -43 -41 -47 -41 -5 0 -8 29 -8 64 0
62 -1 65 -32 80 -33 17 -76 21 -94 8 -14 -10 -38 -374 -39 -599 0 -172 1 -184
21 -203 12 -12 39 -24 62 -27 45 -6 54 4 65 67 3 19 13 73 22 120 9 47 18 110
20 140 6 90 23 155 50 196 40 62 96 124 111 124 8 0 20 -24 30 -57 9 -31 25
-70 35 -87 10 -17 19 -38 19 -46 1 -8 19 -35 41 -59 34 -38 46 -45 88 -49 51
-5 66 4 101 58 8 12 21 28 28 36 7 7 19 28 28 46 8 18 18 40 24 48 17 29 40
83 40 97 0 17 61 133 70 133 13 0 30 -52 44 -133 8 -45 20 -102 26 -127 6 -25
16 -65 22 -90 14 -57 29 -80 103 -156 73 -74 112 -89 206 -81 64 5 94 16 131
46 15 12 23 8 66 -35 57 -57 84 -75 132 -85 19 -5 49 -11 65 -15 17 -4 35 -11
41 -15 14 -12 9 -299 -6 -355 -16 -57 -10 -88 18 -92 14 -2 22 2 22 12 0 8 8
23 18 33 23 22 53 101 51 133 -1 14 1 32 5 41 4 10 3 20 -3 23 -6 4 -6 18 3
39 7 17 12 72 12 121 l-1 89 65 42 c68 44 109 93 149 180 13 28 30 62 38 77 7
15 16 54 18 85 2 32 9 74 15 93 21 72 6 236 -27 285 -7 11 -13 27 -13 35 0 9
-13 29 -30 45 -16 16 -30 37 -30 46 0 24 -124 132 -187 165 -48 24 -53 30 -53
60 0 18 4 35 8 38 15 9 35 174 27 223 -11 74 -10 73 -84 73 -37 0 -70 -2 -73
-5z m191 -509 c51 -27 85 -65 119 -137 28 -58 50 -163 45 -209 -17 -163 -56
-297 -100 -354 -13 -16 -23 -32 -23 -37 0 -4 -15 -22 -32 -38 -28 -27 -35 -29
-44 -16 -13 18 -75 20 -92 3 -7 -7 -12 -30 -12 -51 l0 -40 -46 7 c-84 11 -149
72 -135 124 8 30 10 30 136 17 65 -7 73 -6 110 18 89 58 155 119 156 146 1 14
2 38 3 54 2 31 -41 79 -86 96 -18 7 -28 18 -28 31 0 17 -4 19 -25 14 -20 -5
-25 -2 -25 12 0 25 56 72 103 86 56 17 66 34 35 64 -26 27 -89 41 -130 30 -35
-9 -105 -77 -133 -130 -27 -52 -33 -101 -11 -109 21 -8 24 -51 5 -86 -12 -23
-36 -42 -79 -63 -33 -17 -64 -27 -68 -23 -13 12 -10 149 3 165 11 13 24 51 30
85 9 53 23 75 75 120 32 28 62 58 65 68 4 10 20 20 36 24 18 3 42 21 60 45 26
32 30 44 25 73 -8 42 -2 43 63 11z m-174 -27 c7 -11 -143 -165 -152 -156 -7 7
17 50 33 60 8 4 14 14 14 22 0 16 70 85 87 85 6 0 15 -5 18 -11z m143 -502 c3
-16 -16 -37 -93 -107 -22 -20 -79 -35 -94 -26 -13 8 25 72 69 119 30 31 41 36
75 34 29 -1 41 -7 43 -20z"/>
<path d="M7895 2692 c-40 -13 -111 -77 -186 -166 -42 -50 -82 -101 -90 -113
-18 -30 -24 -29 -64 10 -67 66 -140 90 -199 67 -22 -8 -26 -16 -26 -47 1 -49
19 -71 61 -79 75 -12 79 -14 79 -37 0 -12 -16 -37 -35 -56 -55 -54 -65 -83
-64 -185 2 -113 8 -126 59 -126 35 0 39 -3 37 -22 -2 -20 2 -23 30 -20 18 2
42 -2 53 -8 36 -19 73 -3 102 43 24 38 26 51 26 135 0 51 -4 95 -9 98 -17 10
-9 50 16 84 14 19 25 39 25 46 0 7 10 21 23 31 12 10 34 36 49 58 43 63 151
156 221 190 33 16 42 25 42 45 0 43 -85 72 -150 52z m-327 -641 c-4 -36 -35
-40 -44 -7 -8 34 12 62 33 44 8 -6 13 -23 11 -37z"/>
<path d="M6800 2492 c-44 -7 -64 -31 -152 -187 -9 -16 -28 -55 -43 -85 -71
-149 -75 -177 -35 -243 52 -86 127 -76 202 29 17 24 36 43 42 41 37 -12 34
-426 -4 -582 -12 -49 -25 -94 -28 -100 -3 -5 -7 -29 -9 -53 -1 -24 -8 -50 -14
-58 -7 -8 -23 -36 -35 -62 -13 -26 -27 -54 -32 -62 -5 -8 -14 -24 -20 -35 -7
-11 -24 -42 -38 -69 -36 -67 -195 -226 -266 -265 -37 -20 -78 -33 -115 -37
-57 -6 -59 -6 -91 30 -69 76 -77 105 -77 271 0 125 3 155 18 183 10 18 15 37
11 43 -9 15 15 86 43 128 13 19 23 39 23 46 0 22 25 61 68 106 23 24 42 49 42
55 0 5 19 28 43 51 45 43 96 128 84 139 -4 4 -24 2 -46 -4 -28 -9 -43 -21 -54
-45 -9 -17 -48 -63 -87 -102 -39 -38 -79 -88 -89 -110 -10 -22 -25 -46 -34
-54 -10 -7 -17 -20 -17 -28 0 -8 -10 -33 -22 -56 -12 -23 -25 -50 -30 -60 -5
-10 -13 -52 -18 -93 -5 -41 -13 -81 -17 -87 -22 -36 -5 -297 19 -297 4 0 8
-10 8 -23 0 -30 79 -119 136 -152 49 -29 82 -30 204 -6 48 9 62 18 111 69 30
33 59 66 62 75 4 10 13 17 20 17 17 0 71 50 80 74 4 10 16 20 26 23 25 6 81
76 81 101 0 11 7 25 15 32 8 7 15 23 15 35 0 12 7 28 15 35 8 7 15 23 15 37 0
13 7 26 15 29 8 4 15 14 15 23 0 9 7 35 15 59 9 24 13 47 10 52 -2 4 2 13 10
20 8 7 15 19 15 27 0 8 9 35 19 61 20 48 27 99 38 302 10 163 7 222 -17 383
-13 80 -17 91 -47 118 -53 46 -89 34 -119 -37 -15 -36 -76 -102 -81 -87 -11
32 139 243 173 243 6 0 23 -9 37 -20 22 -17 29 -18 51 -9 32 15 32 29 3 71
-50 75 -98 107 -147 100z"/>
<path d="M6075 2431 c-3 -5 -19 -12 -35 -16 -18 -4 -55 -32 -94 -71 l-64 -64
-16 25 c-9 13 -16 31 -16 38 0 31 -69 49 -96 26 -16 -13 -19 -99 -4 -99 6 0
10 -12 10 -26 0 -14 5 -34 11 -45 18 -34 12 -171 -9 -225 -19 -49 -37 -120
-47 -184 -6 -42 21 -99 50 -106 12 -3 32 -1 45 4 28 11 29 14 85 227 60 223
66 238 136 320 69 82 84 87 143 58 35 -18 61 -56 50 -74 -3 -6 -1 -16 5 -23 7
-8 10 -61 9 -147 -2 -74 0 -139 5 -146 10 -15 65 7 79 31 13 24 18 242 7 295
-14 64 -83 142 -161 180 -64 33 -83 37 -93 22z"/>
<path d="M5284 2400 c-11 -4 -36 -28 -55 -52 -18 -23 -36 -45 -39 -48 -6 -5
-32 -51 -50 -90 -11 -24 -51 -25 -57 -1 -3 11 -14 23 -24 26 -10 4 -19 10 -19
15 0 5 -19 19 -42 31 l-42 21 -68 -22 c-73 -24 -140 -66 -158 -100 -14 -25
-34 -26 -60 0 -47 47 -91 10 -102 -88 -5 -49 -3 -75 7 -97 41 -91 45 -106 45
-192 0 -85 1 -91 29 -117 28 -27 29 -27 65 -12 20 8 38 21 40 28 3 7 7 54 10
103 11 184 31 248 98 312 30 29 114 60 128 47 20 -21 -20 -246 -57 -320 -6
-10 -17 -35 -25 -54 -9 -19 -23 -51 -32 -72 -23 -52 -20 -70 18 -107 28 -27
37 -31 54 -22 25 13 82 78 82 93 0 6 18 50 41 96 55 114 79 171 79 188 0 8 14
33 30 56 18 25 30 53 30 72 0 18 7 41 15 51 8 11 25 35 38 54 12 19 26 35 31
35 5 1 15 -26 23 -59 7 -33 20 -80 29 -105 8 -25 17 -85 20 -135 2 -49 6 -114
9 -142 3 -41 0 -53 -11 -53 -11 0 -13 -7 -8 -27 14 -57 24 -73 44 -73 20 0 25
13 21 57 -1 13 6 26 18 33 17 9 19 18 15 59 -2 29 0 52 6 56 6 4 8 21 5 38 -2
18 -7 61 -10 97 -3 36 -10 97 -15 135 -5 39 -14 102 -19 140 -15 123 -64 175
-137 145z"/>
<path d="M2741 2361 c-18 -11 -9 -46 24 -96 15 -20 40 -74 56 -119 28 -77 29
-88 28 -224 -1 -78 -6 -145 -10 -148 -15 -9 -10 -98 6 -122 17 -23 67 -41 101
-34 15 3 21 11 21 30 1 31 8 91 23 177 19 113 27 150 44 187 9 21 16 52 16 70
0 18 9 44 20 58 11 14 20 32 20 41 0 28 42 32 62 6 10 -12 22 -27 28 -34 5 -7
10 -14 10 -17 0 -3 14 -36 31 -73 25 -53 34 -91 42 -176 10 -96 9 -120 -11
-230 -12 -67 -25 -144 -28 -171 -3 -27 -10 -58 -15 -68 -10 -19 4 -58 21 -58
17 0 50 39 50 59 0 11 5 23 10 26 6 3 10 15 10 26 0 10 4 27 10 37 13 22 34
74 35 87 0 6 7 25 15 44 16 39 19 201 6 296 -5 33 -17 75 -27 93 -11 18 -19
41 -19 50 0 9 -14 37 -30 62 -16 25 -30 48 -30 52 0 4 -22 30 -49 57 -47 50
-49 51 -109 51 -56 0 -62 -2 -87 -32 -15 -18 -34 -47 -43 -65 -9 -18 -19 -33
-23 -33 -4 0 -17 21 -29 46 -12 26 -40 71 -62 100 -34 45 -45 54 -72 54 -17 0
-37 -4 -45 -9z"/>
<path d="M4002 2313 c-11 -20 -32 -189 -32 -255 -1 -61 -30 -119 -96 -188 -62
-65 -89 -74 -104 -36 -12 32 -40 223 -40 274 0 53 -61 122 -109 122 -34 0 -50
-21 -33 -43 5 -6 12 -30 15 -52 3 -22 10 -74 15 -115 27 -197 76 -293 155
-304 69 -10 116 7 166 60 44 45 45 46 54 23 9 -25 11 -277 2 -319 -3 -14 -8
-43 -11 -65 -3 -22 -8 -47 -11 -55 -3 -8 -5 -27 -4 -41 1 -14 -5 -45 -13 -70
-9 -24 -16 -56 -16 -72 0 -15 -4 -35 -9 -45 -5 -9 -21 -51 -37 -91 -15 -41
-42 -101 -61 -134 -18 -32 -33 -61 -33 -64 0 -3 -15 -26 -34 -52 -53 -72 -152
-166 -202 -192 -26 -13 -48 -29 -51 -36 -3 -8 -12 -9 -30 -2 -37 14 -93 11
-93 -5 0 -20 20 -33 59 -38 75 -11 183 29 266 97 103 86 131 120 195 245 18
36 39 76 47 90 7 14 13 32 13 40 0 9 5 21 11 27 5 5 11 21 13 34 4 26 19 70
38 106 6 13 9 26 5 29 -3 3 1 25 9 47 8 23 17 53 19 67 2 14 13 72 24 130 15
85 19 154 20 370 1 322 6 383 33 417 10 12 -8 48 -46 91 -24 27 -81 30 -94 5z"/>
</g>
</svg>
